/* XPM */
static char *_52c00d48d084cceb60858b448f6a84aA4ZzmyaTzZyjCoam[] = {
/* columns rows colors chars-per-pixel */
"64 64 29 1 ",
"  c #120E0D",
". c #1E2837",
"X c #1F2638",
"o c #21293C",
"O c #22293E",
"+ c #232C3F",
"@ c #232A41",
"# c #242F42",
"$ c #262E46",
"% c #273347",
"& c #29344A",
"* c #2A354D",
"= c #2B3A53",
"- c #2E3E55",
"; c #2D3B5E",
": c #313F5E",
"> c #303F63",
", c #2E4058",
"< c #334360",
"1 c #364866",
"2 c #314068",
"3 c #33426C",
"4 c #36486A",
"5 c #3A4D6E",
"6 c #354571",
"7 c #384876",
"8 c #3A4D7B",
"9 c #3C5081",
"0 c #3E5386",
/* pixels */
"&&&**  000055            **  ********  000055  **55**  **55*****",
"     **********00005500              **************      ****  *",
"     **********00005500              **************      ****  *",
"&&&**  55000000******  550000000000000055  00000000000055  0000 ",
"&&&**  55000000******  550000000000000055  00000000000055  0000 ",
"&  **    ********  **    ******55**55****  **5555**55****  **555",
"&  **    ********  **    ******55**55****  **5555**55****  **555",
"     44&&&&  &&      44&&&&  &&&&&&44&&&&  &&&&&&&&44&&&&  &&&&&",
"     44&&&&  &&      44&&&&  &&&&&&44&&&&  &&&&&&&&44&&&&  &&&&&",
"88844      44  999944      44    &&  &&&&  &&    &&  &&&&  &&   ",
"88844      44  999944      44    &&  &&&&  &&    &&  &&&&  &&   ",
"%%%44  44999999&&&&44  44999999      44  44          44  44    9",
"%%%44  44999999&&&&44  44999999      44  44          44  44    9",
"%  &&  &&&&44&&&&  &&  &&&&44&&999944  99999944999944  99999944&",
"%  &&  &&&&44&&&&  &&  &&&&44&&999944  99999944999944  99999944&",
"         %%  %%          %%  %%%%11%%  %%11%%%%%%11%%  %%11%%%%%",
"         %%  %%          %%  %%%%11%%  %%11%%%%%%11%%  %%11%%%%%",
"                 881188        %%%%      %%%%  %%%%      %%%%   ",
"                 881188        %%%%      %%%%  %%%%      %%%%   ",
" $$%%  %%%%%%%%%%%%%%  11888888  88888811  88    %%%%  %%%%%%%%%",
" $$%%  %%%%%%%%%%%%%%  11888888  88888811  88    %%%%  %%%%%%%%%",
"<              %%  %%    %%%%%%11%%11%%%%  %%1111              %",
"<              %%  %%    %%%%%%11%%11%%%%  %%1111              %",
"#  <<777777<<        <<$$$$  $$$$$$<<$$$$  $$$$$$  <<777777<<   ",
"#  <<777777<<        <<$$$$  $$$$$$<<$$$$  $$$$$$  <<777777<<   ",
"   $$$$$$<<$$  7777<<      <<    $$  $$$$  $$      $$$$$$<<$$  7",
"   $$$$$$<<$$  7777<<      <<    $$  $$$$  $$      $$$$$$<<$$  7",
"6::  $$  $$$$  $$$$<<  <<777777      <<  <<    77<<  $$  $$$$  $",
"6::  $$  $$$$  $$$$<<  <<777777      <<  <<    77<<  $$  $$$$  $",
"###<<          $$  $$  $$$$<<$$7777<<  777777<<$$$$<<          $",
"###<<          $$  $$  $$$$<<$$7777<<  777777<<$$$$<<          $",
"@@@##  6666::            ##  ####::##  ##::##########  6666::   ",
"@@@##  6666::            ##  ####::##  ##::##########  6666::   ",
"               6666::66        ####      ####        ##########6",
"               6666::66        ####      ####        ##########6",
"+++##  ::666666  ####  ########66666666::  666666666666::  6666 ",
"+++##  ::666666  ####  ########66666666::  666666666666::  6666 ",
"+  ##    ######::              ::##::####  ##::::##::####  ##:::",
"+  ##    ######::              ::##::####  ##::::##::####  ##:::",
"     ,,++++  ++++  ,,333333,,  ++++,,++++  ++++++++,,++++  +++++",
"     ,,++++  ++++  ,,333333,,  ++++,,++++  ++++++++,,++++  +++++",
"222,,      ,,      ++++++,,++    ++  ++++  ++    ++  ++++  ++   ",
"222,,      ,,      ++++++,,++    ++  ++++  ++    ++  ++++  ++   ",
"OOO,,  ,,33333333,,  ++  ++++        ,,  ,,          ,,  ,,    3",
"OOO,,  ,,33333333,,  ++  ++++        ,,  ,,          ,,  ,,    3",
"O  ++  ++++,,++++++,,          3333,,  333333,,3333,,  333333,,+",
"O  ++  ++++,,++++++,,          3333,,  333333,,3333,,  333333,,+",
"         OO  OOOOOOOO  2222--  OO--OO  OO--OOOOOO--OO  OO--OOOOO",
"         OO  OOOOOOOO  2222--  OO--OO  OO--OOOOOO--OO  OO--OOOOO",
"                     OOOOOOOOOOOOOO      OOOO  OOOO      OOOO   ",
"                     OOOOOOOOOOOOOO      OOOO  OOOO      OOOO   ",
" OOOO  OOOOOOOOOOOOOO  --22222222222222--  2222OOOOOO  --2222222",
" OOOO  OOOOOOOOOOOOOO  --22222222222222--  2222OOOOOO  --2222222",
"=              OO  OO    OOOOOO--OO--OOOO  OO--OO  OO    OOOOOO-",
"=              OO  OO    OOOOOO--OO--OOOO  OO--OO  OO    OOOOOO-",
"X  ==>>>>>>==        ==OOOO  OOOOOO==OOOO  OOOO      ==OOOO  OOO",
"X  ==>>>>>>==        ==OOOO  OOOOOO==OOOO  OOOO      ==OOOO  OOO",
"   OOOOOO==OO  >>>>==      ==    OO  OOOO  OO  >>>>==      ==   ",
"   OOOOOO==OO  >>>>==      ==    OO  OOOO  OO  >>>>==      ==   ",
";**  OO  OOOO  OOOO==  ==>>>>>>      ==  ==    OOOO==  ==>>>>>> ",
";**  OO  OOOO  OOOO==  ==>>>>>>      ==  ==    OOOO==  ==>>>>>> ",
"XXX==          OO  OO  OOOO==OO>>>>==  >>>>>>==OO  OO  OOOO==OO>",
"XXX==          OO  OO  OOOO==OO>>>>==  >>>>>>==OO  OO  OOOO==OO>",
"...XX  ;;;;**            XX  XXXX**XX  XX**XXXX          XX  XXX"
};
